<svg width="119" height="136" viewBox="0 0 119 136" fill="none" xmlns="http://www.w3.org/2000/svg">
<g clip-path="url(#clip0_66_150)">
<path d="M0.248381 23.6911C0.380898 22.8958 1.42447 21.3385 2.36865 21.0735L47.2421 4.25776C47.971 3.97612 48.7992 4.19149 49.3127 4.78791C54.3649 10.6361 59.2017 16.7163 63.3098 23.31C65.4963 26.8223 71.7246 37.0608 72.2878 40.5399C72.5362 42.0144 72.4369 42.0806 71.0289 41.799C68.1963 41.2523 65.2644 39.8606 62.3325 39.2477C42.8691 35.2218 22.1302 34.7248 2.7165 39.4299C1.52385 39.7115 0.380898 38.8335 0.380898 37.5909C0.430592 33.0184 -0.430767 27.7335 0.231817 23.6911H0.248381Z" fill="#0052FF"/>
<path d="M35.4648 67.2628C39.6887 90.2746 52.8079 111.514 68.4946 128.462C69.1903 129.207 69.1737 130.384 68.4117 131.08C66.2418 133.084 61.3055 135.768 60.1791 135.967C56.2865 136.696 34.7525 120.775 31.0917 117.263C28.4083 114.695 17.31 101.789 16.5315 99.0055C15.5541 95.4932 22.0806 83.101 24.0849 79.3237C26.288 75.1984 29.0543 70.2946 32.1684 66.4013C33.1789 65.1422 35.1666 65.6723 35.4648 67.2462V67.2628Z" fill="#0052FF"/>
<path d="M83.7007 60.5199C79.1952 39.4796 67.9478 20.4936 54.4642 3.94298C53.6857 2.98209 54.017 1.54074 55.16 1.04373C56.1373 0.61298 57.1146 0.115965 58.0256 0.0165616C60.9576 -0.331349 99.2715 13.7839 104.075 16.2193C104.589 16.4843 105.218 16.6831 105.748 16.9979C106.444 17.4121 106.775 18.257 106.576 19.0523C102.833 33.913 96.4886 49.1714 86.964 61.3151C85.9867 62.5577 84.0155 62.0772 83.6842 60.5365L83.7007 60.5199Z" fill="#0052FF"/>
<path d="M116.78 21.1231C117.526 21.322 118.072 21.9349 118.155 22.697C120.143 38.9494 118.453 56.3615 114.08 72.0672C113.434 74.4032 110.85 83.3329 109.74 84.5589C107.438 87.1102 84.4958 88.5184 75.6172 87.6404C74.0767 87.4913 73.4141 85.6192 74.4577 84.4926C91.0057 66.6995 104.671 45.2947 110.187 21.3717C110.419 20.3279 111.463 19.6984 112.49 19.9634L116.764 21.1066L116.78 21.1231Z" fill="#0052FF"/>
<path d="M105.334 93.7371C98.4599 107.107 87.5935 118.903 74.9548 126.954C74.2093 127.435 73.2155 127.302 72.6026 126.656C62.3325 115.871 53.5699 103.495 47.6729 89.7776C47.0434 88.2865 48.468 86.7789 49.9919 87.2759C67.0866 92.8591 85.6058 93.2235 103.446 91.0367C104.92 90.8544 106.013 92.4117 105.334 93.7371Z" fill="#0052FF"/>
<path d="M44.5917 44.0024C42.1401 47.0508 39.6886 50.0992 37.237 53.1475C32.8639 58.5816 28.0271 63.7836 24.7639 69.9632L17.9393 82.869C16.8129 85.0062 15.6865 87.1268 14.5601 89.264C13.8478 90.6059 11.8932 90.5894 11.2306 89.2143C4.60476 75.6458 1.54031 60.4868 0.397355 45.4603C0.331096 44.516 0.960551 43.6711 1.88817 43.4723C15.5374 40.7056 29.286 40.7718 43.1671 40.9375C44.7242 40.9541 45.5856 42.7599 44.6082 43.9859L44.5917 44.0024Z" fill="#0052FF"/>
</g>
<defs>
<clipPath id="clip0_66_150">
<rect width="119" height="136" fill="white"/>
</clipPath>
</defs>
</svg>
