<svg width="40" height="40" viewBox="0 0 40 40" fill="none" xmlns="http://www.w3.org/2000/svg">
<path fill-rule="evenodd" clip-rule="evenodd" d="M36.8433 9.46671L20.8333 0.225042C20.5805 0.0790537 20.2936 0.00219727 20.0017 0.00219727C19.7097 0.00219727 19.4229 0.0790537 19.17 0.225042L3.155 9.46671C2.94284 9.58959 2.76667 9.76603 2.64412 9.97838C2.52156 10.1907 2.45692 10.4315 2.45667 10.6767V29.32C2.45667 29.82 2.72333 30.2817 3.15667 30.5317L19.1683 39.7767C19.4212 39.9225 19.7081 39.9993 20 39.9993C20.2919 39.9993 20.5788 39.9225 20.8317 39.7767L36.845 30.5317C37.0577 30.4089 37.2344 30.2323 37.3572 30.0196C37.4801 29.8069 37.5449 29.5657 37.545 29.32V10.6784C37.5446 10.433 37.4797 10.1921 37.3568 9.97976C37.234 9.76739 37.0575 9.59104 36.845 9.46838L36.8433 9.46671ZM35.8383 11.4267L20.38 38.2C20.275 38.38 20 38.3067 20 38.0984V20.5667C19.9997 20.3944 19.9542 20.2251 19.8679 20.0759C19.7816 19.9268 19.6576 19.8029 19.5083 19.7167L4.325 10.95C4.14667 10.8467 4.22 10.57 4.42833 10.57H35.345C35.785 10.57 36.0583 11.0467 35.8383 11.4267Z" fill="white"/>
</svg>
