<svg width="40" height="40" viewBox="0 0 40 40" fill="none" xmlns="http://www.w3.org/2000/svg">
<g clip-path="url(#clip0_17_396)">
<path d="M35.625 0H4.375C1.95875 0 0 1.95875 0 4.375V35.625C0 38.0412 1.95875 40 4.375 40H35.625C38.0412 40 40 38.0412 40 35.625V4.375C40 1.95875 38.0412 0 35.625 0Z" fill="#092E20"/>
<path d="M29.1214 14.7184V25.0664C29.1214 28.6318 28.8605 30.3419 28.078 31.8202C27.3532 33.2409 26.3965 34.1392 24.4256 35.1248L20.2804 33.1537C22.2516 32.2262 23.208 31.4148 23.8167 30.168C24.4546 28.8927 24.6576 27.4143 24.6576 23.5302V14.7184H29.1214ZM22.0201 7.82483V28.4871C19.7301 28.9218 18.0488 29.0957 16.2228 29.0957C10.7732 29.0957 7.93259 26.6321 7.93259 21.9071C7.93259 17.3562 10.9473 14.3998 15.614 14.3998C16.3386 14.3998 16.8893 14.4576 17.5561 14.6315V7.82483H22.0201ZM16.0489 17.9938C13.788 17.9938 12.4835 19.3853 12.4835 21.8199C12.4835 24.197 13.73 25.5013 16.0199 25.5013C16.5125 25.5013 16.9185 25.4723 17.5561 25.3856V18.2255C17.0344 18.0518 16.5996 17.9938 16.0489 17.9938ZM29.1214 7.84858V12.4285H24.6576V7.84858H29.1214Z" fill="#FFFFFD"/>
</g>
<defs>
<clipPath id="clip0_17_396">
<rect width="40" height="40" fill="white"/>
</clipPath>
</defs>
</svg>
