<svg width="40" height="40" viewBox="0 0 40 40" fill="none" xmlns="http://www.w3.org/2000/svg">
<path d="M6.66669 33.3333C6.66669 31.5652 7.36907 29.8695 8.61931 28.6192C9.86955 27.369 11.5652 26.6666 13.3334 26.6666H20V33.3333C20 35.1014 19.2976 36.7971 18.0474 38.0473C16.7972 39.2976 15.1015 40 13.3334 40C11.5652 40 9.86955 39.2976 8.61931 38.0473C7.36907 36.7971 6.66669 35.1014 6.66669 33.3333Z" fill="#24CB71"/>
<path d="M20 0V13.3333H26.6667C28.4348 13.3333 30.1305 12.631 31.3807 11.3807C32.631 10.1305 33.3333 8.43478 33.3333 6.66667C33.3333 4.89856 32.631 3.20286 31.3807 1.95262C30.1305 0.702379 28.4348 0 26.6667 0L20 0Z" fill="#FF7237"/>
<path d="M26.6117 26.6667C28.3798 26.6667 30.0755 25.9643 31.3257 24.7141C32.576 23.4638 33.2783 21.7682 33.2783 20C33.2783 18.2319 32.576 16.5362 31.3257 15.286C30.0755 14.0358 28.3798 13.3334 26.6117 13.3334C24.8436 13.3334 23.1479 14.0358 21.8976 15.286C20.6474 16.5362 19.945 18.2319 19.945 20C19.945 21.7682 20.6474 23.4638 21.8976 24.7141C23.1479 25.9643 24.8436 26.6667 26.6117 26.6667Z" fill="#00B6FF"/>
<path d="M6.66669 6.66667C6.66669 8.43478 7.36907 10.1305 8.61931 11.3807C9.86955 12.631 11.5652 13.3333 13.3334 13.3333H20V0H13.3334C11.5652 0 9.86955 0.702379 8.61931 1.95262C7.36907 3.20286 6.66669 4.89856 6.66669 6.66667Z" fill="#FF3737"/>
<path d="M6.66669 20C6.66669 21.7682 7.36907 23.4638 8.61931 24.7141C9.86955 25.9643 11.5652 26.6667 13.3334 26.6667H20V13.3334H13.3334C11.5652 13.3334 9.86955 14.0358 8.61931 15.286C7.36907 16.5362 6.66669 18.2319 6.66669 20Z" fill="#874FFF"/>
</svg>
