<svg width="40" height="40" viewBox="0 0 40 40" fill="none" xmlns="http://www.w3.org/2000/svg">
<g clip-path="url(#clip0_17_394)">
<path d="M26.6017 12.2116L30.0783 8.73497L30.3117 7.26997C23.9733 1.5083 13.9 2.16163 8.18832 8.6333C6.59313 10.4671 5.43462 12.6388 4.79999 14.985L6.04499 14.81L12.9983 13.6633L13.535 13.1133C16.6283 9.71663 21.8583 9.25997 25.43 12.15L26.6017 12.2116Z" fill="#EA4335"/>
<path d="M35.0333 14.8834C34.2337 11.9398 32.5921 9.29383 30.31 7.27002L25.43 12.15C26.447 12.9812 27.262 14.0325 27.8135 15.2246C28.3649 16.4167 28.6384 17.7185 28.6133 19.0317V19.8984C29.1837 19.8981 29.7485 20.0103 30.2756 20.2283C30.8026 20.4464 31.2815 20.7661 31.685 21.1693C32.0885 21.5725 32.4086 22.0512 32.6271 22.578C32.8455 23.1049 32.9581 23.6696 32.9583 24.24C32.9583 26.64 31.0133 28.535 28.615 28.535H19.915L19.0616 29.4617V34.6717L19.9166 35.4884H28.615C34.8533 35.5384 39.9516 30.5684 39.9983 24.33C40.0131 22.468 39.5674 20.6313 38.7009 18.9832C37.8344 17.335 36.5739 15.9267 35.0316 14.8834H35.0333Z" fill="#4285F4"/>
<path d="M11.23 35.4884H19.9166V28.535H11.23C10.6116 28.535 10.0116 28.4017 9.44831 28.145L8.21497 28.5234L4.71497 32L4.40997 33.1834C6.37024 34.6765 8.7658 35.4862 11.23 35.4884Z" fill="#34A853"/>
<path d="M11.23 12.9317C8.87633 12.9455 6.58573 13.6941 4.6782 15.073C2.77067 16.4519 1.34148 18.3922 0.590284 20.6228C-0.160911 22.8535 -0.196592 25.263 0.488225 27.5149C1.17304 29.7668 2.54415 31.7486 4.41002 33.1834L9.44835 28.145C8.80812 27.8557 8.24763 27.4153 7.81499 26.8617C7.38234 26.3082 7.09044 25.6579 6.96434 24.9667C6.83824 24.2755 6.8817 23.5641 7.09098 22.8934C7.30027 22.2227 7.66914 21.6128 8.16595 21.116C8.66275 20.6192 9.27266 20.2503 9.94336 20.041C10.6141 19.8317 11.3255 19.7883 12.0167 19.9144C12.7079 20.0405 13.3581 20.3324 13.9117 20.765C14.4653 21.1977 14.9057 21.7581 15.195 22.3984L20.2334 17.36C19.1758 15.9776 17.8128 14.8585 16.2509 14.0903C14.689 13.322 12.9706 12.9255 11.23 12.9317Z" fill="#FBBC05"/>
</g>
<defs>
<clipPath id="clip0_17_394">
<rect width="40" height="40" fill="white"/>
</clipPath>
</defs>
</svg>
