<svg width="40" height="40" viewBox="0 0 40 40" fill="none" xmlns="http://www.w3.org/2000/svg">
<path d="M20 39.9258C19.4498 39.9258 18.9363 39.7791 18.4595 39.5223L13.5811 36.6246C12.8475 36.2211 13.2143 36.0744 13.4344 36.0011C14.4247 35.6709 14.6081 35.5976 15.6351 35.0107C15.7452 34.9374 15.8919 34.974 16.0019 35.0474L19.7433 37.2848C19.89 37.3582 20.0734 37.3582 20.1834 37.2848L34.8186 28.8119C34.9653 28.7385 35.0387 28.5918 35.0387 28.4084V11.4991C35.0387 11.3157 34.9653 11.1689 34.8186 11.0956L20.1834 2.65927C20.0367 2.58591 19.8533 2.58591 19.7433 2.65927L5.10808 11.0956C4.96137 11.1689 4.88801 11.3523 4.88801 11.4991V28.4084C4.88801 28.5551 4.96137 28.7385 5.10808 28.8119L9.10616 31.1227C11.2703 32.2231 12.6274 30.9393 12.6274 29.6555V12.9663C12.6274 12.7462 12.8108 12.5261 13.0676 12.5261H14.9382C15.1583 12.5261 15.3784 12.7095 15.3784 12.9663V29.6555C15.3784 32.5532 13.8012 34.2404 11.0502 34.2404C10.2066 34.2404 9.54632 34.2404 7.67566 33.3234L3.8243 31.1227C2.87063 30.5725 2.28375 29.5454 2.28375 28.4451V11.5357C2.28375 10.4354 2.87063 9.40833 3.8243 8.85813L18.4595 0.385136C19.3765 -0.128379 20.6236 -0.128379 21.5406 0.385136L36.1757 8.85813C37.1294 9.40833 37.7163 10.4354 37.7163 11.5357V28.4451C37.7163 29.5454 37.1294 30.5725 36.1757 31.1227L21.5406 39.5957C21.0637 39.8157 20.5135 39.9258 20 39.9258ZM24.5116 28.2983C18.0927 28.2983 16.7722 25.364 16.7722 22.8698C16.7722 22.6497 16.9556 22.4296 17.2124 22.4296H19.1197C19.3398 22.4296 19.5232 22.5763 19.5232 22.7964C19.8166 24.7404 20.6602 25.6941 24.5483 25.6941C27.6294 25.6941 28.9498 24.9972 28.9498 23.3466C28.9498 22.3929 28.583 21.696 23.778 21.2192C19.7799 20.8157 17.2857 19.9354 17.2857 16.7443C17.2857 13.7732 19.7799 12.0126 23.9614 12.0126C28.6564 12.0126 30.9672 13.6265 31.2607 17.1477C31.2607 17.2578 31.224 17.3678 31.1506 17.4778C31.0773 17.5512 30.9672 17.6246 30.8572 17.6246H28.9498C28.7664 17.6246 28.583 17.4778 28.5464 17.2944C28.1062 15.2771 26.9691 14.6168 23.9614 14.6168C20.5869 14.6168 20.1834 15.7906 20.1834 16.6709C20.1834 17.7346 20.6602 18.0647 25.2085 18.6516C29.7201 19.2385 31.8475 20.0821 31.8475 23.2365C31.8109 26.4644 29.1699 28.2983 24.5116 28.2983Z" fill="#539E43"/>
</svg>
