<svg width="40" height="36" viewBox="0 0 40 36" fill="none" xmlns="http://www.w3.org/2000/svg">
<g clip-path="url(#clip0_17_209)">
<path d="M19.9999 21.6064C21.9689 21.6064 23.5651 19.9918 23.5651 18C23.5651 16.0082 21.9689 14.3936 19.9999 14.3936C18.0309 14.3936 16.4347 16.0082 16.4347 18C16.4347 19.9918 18.0309 21.6064 19.9999 21.6064Z" fill="#61DAFB"/>
<path d="M20 25.3889C30.5655 25.3889 39.1305 22.0808 39.1305 18.0001C39.1305 13.9194 30.5655 10.6113 20 10.6113C9.43457 10.6113 0.869583 13.9194 0.869583 18.0001C0.869583 22.0808 9.43457 25.3889 20 25.3889Z" stroke="#61DAFB" stroke-width="1.78261"/>
<path d="M13.6743 21.6945C18.957 30.9502 26.0717 36.7994 29.5653 34.759C33.0589 32.7186 31.6085 23.5614 26.3258 14.3057C21.0431 5.04998 13.9285 -0.799214 10.4348 1.24114C6.94122 3.28149 8.39158 12.4388 13.6743 21.6945Z" stroke="#61DAFB" stroke-width="1.78261"/>
<path d="M13.6743 14.3057C8.39158 23.5614 6.94122 32.7187 10.4348 34.759C13.9285 36.7994 21.0431 30.9502 26.3258 21.6945C31.6085 12.4388 33.0589 3.28151 29.5653 1.24116C26.0717 -0.799193 18.957 5.05 13.6743 14.3057Z" stroke="#61DAFB" stroke-width="1.78261"/>
</g>
<defs>
<clipPath id="clip0_17_209">
<rect width="40" height="36" fill="white"/>
</clipPath>
</defs>
</svg>
